<?xml version="1.0" encoding="utf-8"?>
<!-- Generator: Adobe Illustrator 24.0.1, SVG Export Plug-In . SVG Version: 6.00 Build 0)  -->
<svg version="1.1" id="Camada_1" xmlns="http://www.w3.org/2000/svg" xmlns:xlink="http://www.w3.org/1999/xlink" x="0px" y="0px"
	 viewBox="0 0 599 352" style="enable-background:new 0 0 599 352;" xml:space="preserve">
<style type="text/css">
	.st0{fill:#F2F2F2;}
	.st1{opacity:0.1;enable-background:new    ;}
	.st2{fill:#65617D;}
	.st3{opacity:0.2;enable-background:new    ;}
	.st4{fill:#3F3D56;}
	.st5{fill:#FBBEBE;}
	.st6{fill:#FF6584;}
</style>
<path class="st0" d="M545.9,260.2c-0.6,1.4-1.3,2.8-1.9,4.1c-1,2.1-2,4.2-3,6.2c-0.4,0.9-0.9,1.8-1.3,2.7
	c-4.8,9.8-9.3,18.5-13.1,25.7c-7.1,13.2-20.7,21.5-35.7,21.6l-84.8,0.9h-0.9l-7.3,0.1l-6.2,0.1l-19.1,0.2h-0.8l-9.7,0.1h-0.3
	l-59.9,0.6l-53.4,0.6l-6.2,0.1l-38.6,0.4h0l-25,0.3h-0.3l-79.2,0.9L75.5,325c-2,0-4-0.1-6-0.3l0,0c-0.7-0.1-1.4-0.2-2-0.3
	c-11-1.7-21.2-7.1-28.7-15.4c-10.2-11.2-17.6-24.3-22.6-38.5c-0.7-2-1.4-4.1-2-6.2C-3,206,18,130.9,55.8,80.6
	c1.6-2.1,3.2-4.2,4.8-6.2l0,0c11.6-14.3,24.7-26.2,38.6-34.7c24.6-15.1,51.9-19.3,78.7-6.7c22.7,10.7,43.9,15.7,64.4,17.1
	c2.1,0.1,4.2,0.2,6.2,0.3c47.1,1.5,91.3-15.5,143.1-26.5c2.1-0.4,4.1-0.9,6.2-1.3c37-7.4,78-11.2,126.8-3.1c5.1,0.8,10.1,2,15,3.6
	c2.2,0.7,4.2,1.4,6.2,2.2c23.3,9.5,36,27,41.4,48.9c0.5,2,1,4.1,1.3,6.2C598.2,133.3,570.2,208.2,545.9,260.2z"/>
<path class="st1" d="M286.1,264.3c-0.2,2.1-0.6,4.2-1,6.2h52.4v-6.2H286.1z M242.3,299.4l6.2-0.1V284c-2.1-0.1-4.2-0.2-6.2-0.3
	V299.4z M112,264.3v6.2h111v-6.2H112z M587.3,74.4h-41.4V25.4c-2-0.8-4.1-1.6-6.2-2.2v51.2H397.9V22.7c-2.1,0.4-4.2,0.8-6.2,1.3
	v50.4H248.5v-24c-2.1-0.1-4.1-0.2-6.2-0.3v24.3H99.2V39.7c-13.9,8.5-26.9,20.4-38.6,34.7h0v0c-1.6,2-3.3,4.1-4.8,6.2h4.8v183.7H14.2
	c0.6,2.1,1.3,4.2,2,6.2h44.4v52.4c2.2,0.7,4.5,1.2,6.8,1.6c0.7,0.1,1.4,0.2,2,0.3l0,0c2,0.2,4,0.3,6,0.3l23.7-0.3v-54.3h143.1v52.7
	l6.2-0.1v-52.6h143.1v51.1l6.2-0.1v-51h141.8v2.7c0.4-0.9,0.9-1.8,1.3-2.7c1-2,2-4.1,3-6.2c0.6-1.4,1.3-2.7,1.9-4.1V80.6h42.7
	C588.3,78.5,587.8,76.4,587.3,74.4z M99.2,264.3V80.6h143.1v183.7H99.2z M248.6,264.3V80.6h143.1v183.7H248.6z M539.7,264.3H397.9
	V80.6h141.8L539.7,264.3z"/>
<polygon class="st2" points="490.9,313.5 490.9,320.8 405.9,321.6 405,321.6 372.7,321.9 371.9,321.9 362.1,322 361.8,322 
	302,322.6 203.7,323.5 203.7,323.5 178.7,323.7 178.4,323.7 67.4,324.7 67.4,316.3 93.5,300.7 145.9,300.2 147,300.2 147.4,300.2 
	148.5,300.2 173.6,300 174.7,300 175.1,300 176.2,300 184.3,299.9 184.5,299.9 204.4,299.8 204.5,299.8 359.7,298.4 363.5,298.4 
	363.9,298.4 366.8,298.4 387.8,298.2 389,298.2 390,298.2 390.5,298.2 397.1,298.1 398.4,298.1 400.1,298.1 405.6,298.1 414.2,298 
	415.4,298 417.3,298 417.7,298 459.5,297.6 "/>
<polygon class="st3" points="490.9,313.5 490.9,320.8 405.9,321.6 405,321.6 372.7,321.9 371.9,321.9 362.1,322 361.8,322 
	302,322.6 203.7,323.5 203.7,323.5 178.7,323.7 178.4,323.7 67.4,324.7 67.4,316.3 93.5,300.7 145.9,300.2 147,300.2 147.4,300.2 
	148.5,300.2 173.6,300 174.7,300 175.1,300 176.2,300 184.3,299.9 184.5,299.9 204.4,299.8 204.5,299.8 359.7,298.4 363.5,298.4 
	363.9,298.4 366.8,298.4 387.8,298.2 389,298.2 390,298.2 390.5,298.2 397.1,298.1 398.4,298.1 400.1,298.1 405.6,298.1 414.2,298 
	415.4,298 417.3,298 417.7,298 459.5,297.6 "/>
<path class="st4" d="M173.7,285.6v13.7c0,1.3-0.8,2.5-2,3.1c-0.4,0.2-0.9,0.3-1.4,0.3l-19.5,0.4c-0.5,0-1-0.1-1.5-0.3
	c-1.2-0.6-2-1.8-2-3.1v-14.1H173.7z"/>
<path class="st1" d="M173.7,285.6v13.7c0,1.3-0.8,2.5-2,3.1c-0.4,0.2-0.9,0.3-1.4,0.3l-19.5,0.4c-0.5,0-1-0.1-1.5-0.3
	c-1.2-0.6-2-1.8-2-3.1v-14.1H173.7z"/>
<path class="st4" d="M174.8,285.6v13.7c0,1.3-0.8,2.5-2,3.1c-0.4,0.2-0.9,0.3-1.4,0.3l-19.5,0.4c-0.5,0-1-0.1-1.5-0.3
	c-1.2-0.6-2-1.8-2-3.1v-14.1H174.8z"/>
<rect x="389" y="285.6" class="st4" width="26.4" height="17.6"/>
<rect x="389" y="285.6" class="st1" width="26.4" height="17.6"/>
<rect x="387.8" y="285.6" class="st4" width="26.4" height="17.6"/>
<polygon class="st1" points="174.8,285.6 174.8,288.4 148.4,289.1 148.4,285.6 "/>
<path class="st2" d="M221.4,189.8v94.1c0,1.2-1,2.2-2.2,2.2L112,288.9h0c-1.2,0-2.2-1-2.2-2.2v-96.9c0-1.2,1-2.2,2.2-2.2h107.2
	C220.4,187.6,221.4,188.5,221.4,189.8z"/>
<path class="st1" d="M112,187.6v101.4h0c-1.2,0-2.2-1-2.2-2.2v-96.9C109.8,188.5,110.8,187.6,112,187.6L112,187.6z"/>
<polygon points="116.9,193.6 216.2,193.6 216.2,276.5 116.9,278.7 "/>
<polygon class="st1" points="414.2,285.6 414.2,289.2 387.8,288.5 387.8,285.6 "/>
<path class="st2" d="M449.1,189.8v96.9c0,1.2-1,2.2-2.2,2.2l0,0l-107.2-2.9c-1.2,0-2.1-1-2.2-2.2v-94.1c0-1.2,1-2.2,2.2-2.2h107.2
	C448.1,187.6,449,188.5,449.1,189.8z"/>
<path class="st1" d="M449.1,189.8v96.9c0,1.2-1,2.2-2.2,2.2l0,0V187.6l0,0C448,187.6,449,188.5,449.1,189.8z"/>
<polygon points="441.9,193.6 342.6,193.6 342.6,276.5 441.9,278.7 "/>
<path class="st2" d="M334.7,189.8v94.1c0,1.2-1,2.2-2.2,2.2l-107.2,2.9l0,0c-1.2,0-2.2-1-2.2-2.2v-96.9c0-1.2,1-2.2,2.2-2.2h107.2
	C333.7,187.6,334.7,188.5,334.7,189.8z"/>
<polygon points="230.2,193.6 329.5,193.6 329.5,276.5 230.2,278.7 "/>
<polygon class="st1" points="490.9,313.5 490.9,320.8 405.9,321.6 405,321.6 372.7,321.9 371.9,321.9 362.1,322 361.8,322 
	302,322.6 203.7,323.5 203.7,323.5 178.7,323.7 178.4,323.7 67.4,324.7 67.4,316.3 180.7,315.6 181,315.6 203.9,315.4 204,315.4 
	362.4,314.4 362.5,314.4 362.6,314.4 362.9,314.4 365.6,314.4 366.4,314.4 408,314.1 410.5,314.1 411,314.1 "/>
<circle class="st5" cx="280.6" cy="181.8" r="28.7"/>
<path class="st5" d="M309.4,226c0,0-55.7,6.7-50.3,0c1.9-2.4,2.5-9.6,2.3-17.8c0-2.5-0.1-5.1-0.3-7.6c-0.6-12.3-2.1-24.3-2.1-24.3
	s48.7-22.9,43.1-4.8c-2.2,7.3-1.5,17.7,0.2,27.3c0.5,2.8,1.1,5.6,1.7,8.2C305.4,213.4,307.2,219.8,309.4,226z"/>
<path class="st6" d="M291.2,223.7c6.4-1.2,13.3-3.4,19.3-0.9c1.6,0.7,3.1,1.6,4.7,2.2c1.6,0.5,3.4,0.7,5.1,1.1
	c6,1.4,10.8,5.9,13.9,11.2c3.1,5.3,4.7,11.3,6.3,17.2l3.9,14.4c3.4,12.6,6.7,25.2,7.5,38.2c-46.7,2.7-93.6,2.9-140.3,0.8
	c3-5.8,6.2-11.9,5.9-18.5c-0.3-6.5-4-13-2.7-19.4c0.9-4.1,3.7-7.5,5.4-11.3c4.9-10.9,1.1-25.6,9.7-33.9c3.9-3.7,9.5-5.2,14.9-5
	c6.9,0.2,13.9,2.4,20.7,3.4C274.2,224.6,282.4,225.3,291.2,223.7z"/>
<path class="st1" d="M364.4,285.9l-0.1,0.8v0.1l-0.1,1.3l-0.7,10.4l-0.9,12.5l-0.3,3.5l-0.6,7.5v0.1l-59.9,0.6l-98.2,1.1v0.5h-0.1
	v-0.5v-0.2l0.3-8l0.5-15.7l0.4-13.3l0-1.3c0.1-3.3,2.8-5.8,6.1-5.7c0.1,0,0.2,0,0.3,0c2.6,0.2,6.1,0.5,10.2,0.8l1.7,0.1
	c23.7,1.6,67.4,3.8,111.6,1.1c0.9-0.1,1.9-0.1,2.8-0.2c6.8-0.4,13.7-1,20.5-1.7c3.2-0.3,6.1,2,6.5,5.2
	C364.4,285.2,364.4,285.5,364.4,285.9L364.4,285.9z"/>
<path class="st4" d="M203.7,324.1v-0.5l98.2-1.1l59.9-0.6h0.2v-0.1l0.6-7.5l0.2-3.4l0.9-12.6l0.7-10v-0.2c0-0.5,0-0.9-0.1-1.4
	c0,0,0,0,0-0.1c-0.2-0.9-0.5-1.8-1.1-2.6c-1.3-1.6-3.2-2.5-5.3-2.2c-6.8,0.7-13.6,1.2-20.5,1.7c-0.9,0.1-1.9,0.1-2.8,0.2
	c-44.2,2.6-87.9,0.5-111.6-1.1l-1.7-0.1c-4.1-0.3-7.5-0.6-10.2-0.8c-3-0.3-5.7,1.8-6.3,4.8c-0.1,0.3-0.1,0.6-0.1,0.9l-0.4,12.4
	l-0.5,15.7l-0.2,8v0.2L203.7,324.1L203.7,324.1z"/>
<path class="st1" d="M364.6,289.8l-0.7,8.6l-1,12.8l-0.3,3.2l-0.6,7.2l0,0.4v0.1l0,0l-0.1,0.8l0.1-0.8h-0.2l-59.9,0.6l-98.3,1.1
	v-0.2l0.3-8l0.6-15.7l0.4-10.4c0-1.2,0.7-2.3,1.7-2.9c0.6-0.4,1.4-0.6,2.1-0.5c1.2,0.1,2.6,0.2,4.3,0.3c2.7,0.2,6.1,0.4,10,0.7
	c7.3,0.5,16.4,1,26.8,1.4c29.1,1.1,68.4,1.5,105.7-1.8c1.7-0.1,3.4-0.3,5.1-0.5c0.7-0.1,1.3,0.1,1.9,0.4c0.2,0.1,0.3,0.2,0.5,0.3
	c0.5,0.4,0.9,0.8,1.1,1.4c0.1,0.1,0.1,0.2,0.1,0.3C364.6,288.9,364.6,289.3,364.6,289.8z"/>
<path class="st1" d="M174.8,297.5v1.8c0,1.3-0.8,2.5-2,3.1l-22.4,0.4c-1.2-0.6-2-1.8-2-3.1V298L174.8,297.5z"/>
<polygon class="st4" points="175.1,303.4 145.9,304 145.9,299.1 175.1,298.6 "/>
<polygon class="st1" points="175.1,303.4 145.9,304 145.9,299.1 175.1,298.6 "/>
<polygon class="st4" points="176.2,303.4 147,304 147,299.1 176.2,298.6 "/>
<path class="st1" d="M388,298.6v1.8c0,1.3,0.8,2.5,2,3.1l22.4,0.4c1.2-0.6,2-1.8,2-3.1v-1.7L388,298.6z"/>
<polygon class="st1" points="387.7,304.6 417,305.1 417,300.3 387.7,299.7 "/>
<polygon class="st4" points="386.6,304.6 415.8,305.1 415.8,300.3 386.6,299.7 "/>
<path class="st4" d="M262.5,190.6c0,3.9-1.8,7.6-3.3,11.2c-5.6,13.2-8,27.5-7.1,41.8c0.4,6.2,1.4,12.3,0.4,18.4
	c-1,6.1-4.7,12.2-10.6,13.9c9.8,5.8,23.1,5.2,32.3-1.5c4.9-3.6,8.6-8.6,12.2-13.5c-0.4,8.8-3,17.4-7.4,25
	c16.3-1.4,31.3-9.7,41.1-22.8c2.4-3.2,4.5-6.8,5.4-10.8c1.7-7.3-0.7-14.8-2.5-22.1c-1.5-6.1-2.7-12.2-3.5-18.5c-0.2-2-0.4-4,0.1-6
	c0.6-2.3,2.1-4.2,3.2-6.3c3.1-5.9,3.2-13,1.6-19.5c-1.6-6.5-4.7-12.5-7.9-18.4c-2.5-4.7-5.2-9.7-9.8-12.5c-2.9-1.7-6.2-2.5-9.4-3.2
	l-14.2-3c-3.1-0.7-6.3-1.3-9.4-0.8c-5.3,0.8-9,4.7-12.3,8.6c-2.6,3.1-8.8,8.8-9.3,12.8c-0.4,3.7,2.9,9.9,3.4,13.7
	c0.7,5,1.2,3.4,4.1,6.4C261.3,185.7,262.4,187.9,262.5,190.6z"/>
<path class="st0" d="M176,201.6h-55.7c-0.2,0-0.3-0.1-0.3-0.3s0.1-0.3,0.3-0.3H176c0.2,0,0.3,0.1,0.3,0.3S176.2,201.6,176,201.6z"/>
<path class="st0" d="M176,206.7h-55.7c-0.2,0-0.3-0.1-0.3-0.3s0.1-0.3,0.3-0.3H176c0.2,0,0.3,0.1,0.3,0.3S176.2,206.7,176,206.7z"/>
<path class="st0" d="M176,211.7h-55.7c-0.2,0-0.3-0.1-0.3-0.3s0.1-0.3,0.3-0.3H176c0.2,0,0.3,0.1,0.3,0.3S176.2,211.7,176,211.7z"/>
</svg>
